<svg width="67" height="420" viewBox="0 0 67 420" fill="none" xmlns="http://www.w3.org/2000/svg">
<path d="M48.9832 37.3963C43.7054 19.7628 38.8763 11.8222 31.4329 4.322C23.2232 -3.94582 13.0649 1.86571 7.11107 13.5632C4.20687 19.2949 1.40291 30.3964 0.907908 39.7246C0.264192 50.6455 0.811816 58.4727 2.1614 67.9517C8.45821 111.836 26.0173 154.252 47.9456 171.103C47.9456 171.103 47.9456 171.103 47.9705 171.24C47.9137 171.272 47.8251 171.473 47.7932 171.642C40.8543 168.979 33.1769 182.567 34.8641 216.275C35.0849 221.274 35.5716 225.669 35.8558 227.918C36.0724 229.452 36.2075 230.883 36.8288 234.296C37.4253 237.573 37.9117 239.556 38.579 242.189C38.7849 242.976 39.5338 245.713 40.0023 247.254C43.6757 259.172 47.4548 266.508 53.3047 269.04C55.9235 295.129 64.9695 319.351 58.9776 336.346C57.9068 339.069 56.5096 341.376 54.7537 341.024C56.1861 337.19 56.9305 334.05 56.2342 327.815C55.6799 322.706 53.0955 310.918 49.176 312.105C43.3092 313.954 44.5863 335.082 51.9941 341.698C50.3098 345.526 47.8099 350.725 47.2966 357.2C46.4719 367.47 49.0344 375.351 51.2315 383.29C55.9451 399.889 51.5575 401.947 54.9965 411.889C55.9405 414.665 58.0162 418.151 60.237 418.991C65.0935 420.886 63.7269 415.788 62.9075 416.106C60.3289 417.431 58.4557 416.091 56.5254 412.371C52.7285 404.594 55.9948 400.162 53.8503 388.726C51.3756 375.82 45.4073 365.064 50.8533 349.888C51.5376 348.14 53.2716 344.585 53.9559 342.837C57.4466 344.458 59.9644 339.701 61.4531 333.423C65.5188 316.172 57.1889 290.034 55.1741 269.328C57.2635 269.79 58.5298 269.518 59.9664 269.149C62.7579 268.305 65.5308 262.196 65.3767 253.089C65.3088 249.962 65.0598 246.185 64.1796 243.07C63.2177 239.852 60.8052 237.614 59.4643 237.477C55.9702 237.214 51.7049 248.549 53.1481 266.115C45.7337 262.216 39.9025 244.296 37.8209 227.698C33.7113 195.829 39.6526 173.737 46.804 174.47C45.7937 178.213 45.2212 190.903 45.225 191.956C45.2573 194.198 46.2154 196.364 47.652 195.994C49.0885 195.625 49.6627 192.583 51.0031 190.308C53.6629 186.676 55.9934 186.398 56.2838 183.518C56.638 180.301 54.9209 179.474 50.8971 171.827C54.8692 167.142 54.9276 176.757 59.1673 181.115C63.7085 185.753 65.6612 175.139 63.2765 169.267C66.3866 164.322 65.9665 155.819 66.0833 154.395C67.0303 153.401 65.6074 150.748 65.09 153.757C64.8667 154.94 64.9533 163.333 62.1232 167.062C57.2481 159.902 58.9071 174.179 62.5565 170.131C64.817 175.32 62.006 186.727 56.5443 172.214C54.6989 167.239 52.7193 165.658 50.5665 167.945C61.4281 126.757 62.7118 83.2095 48.9832 37.3963ZM52.5968 339.846C44.4442 333.957 44.7064 311.647 50.574 314.622C52.912 316.45 55.5743 327.288 54.6141 333.717C54.1427 335.947 53.3059 338.234 52.5968 339.846ZM60.4651 240.221C62.7533 241.776 63.3034 243.421 63.8076 245.846C65.2988 254.038 64.1154 261.649 61.7642 265.256C59.8562 267.855 57.1496 267.444 54.8402 266.805C53.2943 250.052 56.7863 238.255 60.4651 240.221ZM59.9311 167.412C59.963 167.243 59.9879 167.379 59.9311 167.412C59.963 167.243 59.9879 167.379 59.9311 167.412ZM60.0446 167.347C60.0198 167.21 60.0198 167.21 60.0446 167.347C60.0198 167.21 60.0198 167.21 60.0446 167.347C60.0198 167.21 60.0198 167.21 60.0446 167.347ZM60.1014 167.314C60.2965 167.354 60.5732 167.497 60.9563 167.881C60.5342 167.971 60.371 167.763 60.1014 167.314ZM2.81381 45.7196C2.83866 45.8561 2.78191 45.8886 2.80677 46.0251L2.81381 45.7196ZM2.79972 46.3306C2.82458 46.4672 2.76783 46.4996 2.79268 46.6362C2.76783 46.4996 2.79972 46.3306 2.79972 46.3306ZM47.6155 190.286C47.8408 180.51 51.0661 185.147 53.0022 181.325C53.1087 181.566 53.1903 181.67 53.3535 181.878C48.601 186.406 49.2182 186.355 47.6155 190.286ZM51.9803 179.498C50.9447 180.694 48.5537 179.951 47.3375 182.908C47.5534 179.619 47.7799 177.077 48.6416 174.926C48.9183 175.069 49.1204 174.803 49.2161 174.296C50.4758 176.741 50.4439 176.91 51.9803 179.498ZM55.8095 127.56C53.7445 145.474 48.1258 166.93 47.9274 168.249C45.3128 166.278 38.5185 158.557 36.2016 155.812C36.2016 155.812 23.8052 142.1 10.6483 99.4274C8.51164 92.5092 7.01335 84.6228 6.49141 81.7556C2.8308 61.991 2.69493 55.7371 2.83162 46.1616C2.88754 41.3056 3.75536 34.0253 5.47816 27.3112C10.7282 7.27281 21.5749 3.17792 28.5353 7.33645C31.0187 8.93076 32.9772 11.4283 35.3507 14.1407C38.991 18.9926 40.7225 21.6201 44.1259 30.6778C54.4176 57.9552 59.4079 95.3508 55.8095 127.56Z" fill="#EFE2DA"/>
</svg>
