<svg width="174" height="199" viewBox="0 0 174 199" fill="none" xmlns="http://www.w3.org/2000/svg">
<g id="Group">
<path id="Vector" d="M171.398 24.5717C167.498 20.1871 159.798 39.918 157.298 47.4915C157.398 35.932 157.198 16.7989 153.498 7.83031C151.898 4.04356 149.698 2.44914 148.198 5.83728C146.898 8.62752 146.898 12.6136 147.198 16.201C148.198 29.7536 150.198 41.9111 152.398 54.8657C146.398 52.4741 139.898 63.8344 135.198 53.2713C137.398 52.6734 140.198 50.8797 142.098 48.0895C143.398 46.0964 144.198 43.3062 144.198 39.5194C144.198 35.5334 142.298 31.7466 140.598 30.7501C138.198 29.355 135.598 30.3515 133.898 34.1383C132.898 36.5299 132.398 39.7187 132.098 42.7083C131.898 44.502 131.798 47.0929 131.998 48.8867C130.498 49.086 128.398 49.2853 126.698 51.8762C124.798 54.6664 124.198 60.4462 124.598 62.0406C125.298 65.2295 127.498 63.2365 126.898 60.2469C127.298 53.2713 129.598 53.8692 133.098 53.6699C138.798 70.0127 148.198 56.4602 152.398 60.2469C137.598 83.9639 113.298 101.901 107.298 105.289C105.698 106.087 103.998 106.884 102.398 107.482C97.9985 109.275 93.5985 110.073 89.0985 110.272C84.3985 110.471 79.7985 110.073 75.0985 108.677C70.2985 107.282 65.4985 105.289 60.8985 102.3C56.0985 99.3102 51.3985 95.5235 46.8985 90.7402C42.1985 85.957 37.6985 80.1772 33.4985 73.7995C31.2985 70.4114 29.1985 66.8239 27.1985 63.0372C26.1985 61.0441 25.1985 59.0511 24.1985 57.0581C23.6985 56.0616 23.1985 55.065 22.6985 53.8692C22.1985 52.8727 21.6985 51.6769 21.4985 50.2818C21.4985 49.8832 21.3985 49.4846 21.5985 49.086C21.7985 48.4881 22.4985 49.086 22.6985 49.2853C22.7985 49.4846 22.9985 49.6839 23.0985 49.6839C23.3985 50.0825 23.6985 50.2818 24.0985 50.4811C24.6985 51.079 25.3985 51.4776 25.9985 51.6769C27.2985 52.2748 28.6985 52.6734 29.9985 52.4741C33.5985 52.2748 37.5985 49.4846 39.9985 43.9041C42.4985 37.925 41.6985 30.3515 39.2985 24.771C37.8985 21.5822 35.4985 19.9878 32.8985 22.1801C29.5985 24.9703 29.4985 32.7431 31.5985 33.7397C33.2985 34.7362 33.5985 30.3515 32.3985 29.5543C31.8985 26.9634 34.0985 23.1766 36.4985 24.1731C40.9985 26.7641 43.2985 46.495 30.3985 47.8901C26.1985 47.8901 25.2985 46.6943 22.7985 44.1034C25.3985 33.1418 27.9985 15.2045 24.6985 4.24286C22.8985 -1.73622 20.1985 -0.739705 18.7985 3.44565C16.3985 10.8199 16.5985 28.3585 16.3985 37.925C13.8985 33.7397 6.59849 21.9808 3.39849 21.1836C-1.30151 19.9878 -2.40151 31.7466 8.49849 43.5055C10.2985 45.4985 16.0985 48.4881 18.5985 51.079C18.3985 51.8762 18.1985 52.4741 17.9985 53.2713C16.1985 59.8483 15.1985 65.8274 12.9985 68.8169C10.9985 70.81 8.49849 71.8065 6.39849 69.6142C1.99849 64.233 4.69849 56.6595 6.39849 58.2539C8.09849 60.4462 7.79849 66.4253 9.59849 65.0302C10.5985 64.233 10.2985 62.2399 9.79849 60.4462C9.09849 57.656 7.89849 54.6664 6.39849 54.2678C3.09849 53.4706 0.0984893 63.2365 4.09849 71.0093C5.09849 73.0023 6.09849 73.9988 7.09849 74.5967C9.19849 76.1911 11.3985 76.1911 13.8985 74.5967C17.3985 72.4044 18.9985 63.6351 20.4985 57.2574C22.9985 63.6351 26.1985 69.4148 29.3985 74.3974C28.3985 79.38 26.7985 89.7437 23.2985 104.691C22.2985 108.877 18.8985 122.031 17.3985 130.202C15.4985 140.167 21.6985 132.594 29.4985 129.804C29.9985 129.604 34.0985 127.811 34.4985 128.209C34.9985 129.006 37.3985 141.363 37.5985 142.559C40.1985 155.514 39.8985 158.702 41.1985 159.699C43.9985 161.891 44.7985 148.538 56.7985 108.279C56.9985 107.482 57.1985 106.684 57.4985 105.887C63.7985 110.671 66.6985 111.468 75.4985 114.059C74.7985 115.852 77.7985 168.867 78.3985 177.636C78.5985 180.028 79.2985 181.024 79.9985 180.825C81.5985 180.426 83.6985 170.063 89.9985 155.912C95.6985 164.084 100.898 178.234 101.798 179.43C102.898 181.024 104.298 180.626 104.598 176.44C104.998 171.259 102.998 122.23 103.498 114.059C103.498 113.261 103.398 112.464 103.198 111.866C108.998 109.275 111.998 107.282 119.598 100.905C119.798 102.499 131.398 154.517 132.998 156.311C133.598 156.909 134.398 156.51 134.898 154.517C135.998 150.132 137.498 124.223 138.898 120.636C139.898 120.835 146.698 127.412 149.998 130.999C154.698 136.58 155.798 139.171 157.298 137.776C158.698 136.381 158.398 132.992 157.998 130.003C156.398 119.041 152.298 104.293 148.498 84.1632C147.898 80.7751 147.298 77.5863 146.298 74.5967C149.198 70.81 151.498 67.6211 154.098 63.4358C154.398 64.233 154.798 65.8274 155.098 66.4253C156.398 71.6072 157.198 77.5863 160.098 84.9605C162.098 89.943 166.498 94.3277 169.698 92.3347C174.198 89.5444 174.798 68.6176 170.298 65.8274C168.998 65.0302 167.598 66.0267 166.698 68.4183C164.098 75.7925 167.298 77.3869 167.898 74.3974C168.498 71.2086 168.398 69.8135 169.398 69.0162C169.998 68.8169 170.398 69.2155 170.798 70.0128C172.098 72.803 172.098 78.5828 171.598 82.3695C171.198 84.9605 170.598 87.95 169.298 88.7472C167.198 89.7437 164.598 86.7542 162.998 83.9639C160.998 79.7786 158.698 69.0162 157.498 64.4323C165.898 64.233 177.598 31.5473 171.398 24.5717ZM133.798 48.4881C133.298 45.4985 134.098 37.5264 135.998 34.9355C139.798 30.7501 144.698 38.7222 139.798 45.0999C138.598 46.495 136.398 48.0895 133.798 48.4881ZM32.5985 29.9529C32.4985 29.7536 32.4985 29.9529 32.5985 29.9529C32.4985 29.7536 32.4985 29.9529 32.5985 29.9529ZM2.09849 26.3655C2.09849 26.1662 2.09849 26.3655 2.09849 26.3655C2.09849 26.1662 2.09849 26.1662 2.09849 26.3655C2.09849 26.3655 2.09849 26.1662 2.09849 26.3655ZM2.09849 26.3655C1.99849 26.3655 1.99849 26.3655 2.09849 26.3655C1.99849 26.3655 1.99849 26.3655 2.09849 26.3655ZM8.79849 39.3201C6.79849 36.9285 2.39849 31.1487 2.09849 26.3655C2.59849 20.785 12.9985 38.5229 16.8985 45.2992C11.9985 41.9111 11.3985 42.1104 8.79849 39.3201ZM23.2985 7.43171C24.4985 11.2185 24.5985 16.7989 24.4985 20.9843C24.3985 24.9703 23.7985 28.5578 23.1985 32.5438C22.5985 36.7292 21.6985 40.7153 20.5985 44.502C20.4985 44.9006 20.2985 45.4985 19.9985 45.4985C19.7985 45.4985 19.6985 44.9006 19.5985 44.502C19.3985 43.1069 19.2985 41.9111 19.1985 40.516C18.9985 36.1313 19.2985 31.348 19.3985 26.9634C19.4985 22.778 19.6985 18.3934 19.9985 14.208C20.1985 11.6171 20.3985 8.22892 21.1985 6.03659C21.9985 4.04356 22.8985 6.03659 23.2985 7.43171ZM42.2985 152.923C41.6985 148.139 37.9985 126.017 35.6985 123.824C33.0985 121.433 20.3985 130.601 19.5985 130.999C27.6985 97.5165 25.6985 108.279 31.3985 77.5863C44.4985 97.3172 46.5985 97.7158 54.9985 104.094C53.5985 108.677 43.2985 149.335 42.2985 152.923ZM102.098 172.255C99.4985 165.678 96.5985 159.699 92.9985 153.72C89.1985 147.342 88.9985 149.933 84.0985 163.087C81.8985 168.867 81.3985 170.86 80.5985 173.451C80.5985 173.052 77.8985 115.055 77.7985 114.856C83.7985 116.251 93.7985 115.852 100.598 113.261C99.6985 119.44 102.098 164.482 102.098 172.255ZM155.098 130.202C151.198 125.02 141.298 114.258 138.398 115.055C134.698 116.052 134.898 136.381 133.398 150.93C131.698 142.36 121.998 99.7089 121.898 99.3102C128.598 93.7298 137.798 85.5584 143.898 77.7856C145.298 82.5688 154.298 123.027 155.098 130.202ZM152.598 11.8164C155.398 21.7815 154.998 42.7083 154.398 54.0685C145.198 0.655412 150.198 4.24286 152.598 11.8164ZM156.798 59.4497C158.098 51.4776 169.498 20.785 170.998 29.355C171.998 39.5194 162.598 60.0476 156.798 59.4497Z" fill="#EFE2DA"/>
<path id="Vector_2" d="M66.9985 150.929C65.4985 151.527 64.1985 151.727 64.3985 154.118C64.5985 156.909 66.0985 155.912 67.2985 155.314C67.9985 154.915 68.2985 153.919 68.1985 152.723C68.1985 151.727 67.5985 150.531 66.9985 150.929Z" fill="#EFE2DA"/>
<path id="Vector_3" d="M68.6985 177.636C69.2985 180.426 70.6985 178.433 72.8985 176.042C74.4985 174.248 73.0985 170.262 71.9985 171.657C69.2985 174.447 68.1985 175.244 68.6985 177.636Z" fill="#EFE2DA"/>
<path id="Vector_4" d="M83.8985 196.57C83.8985 195.175 83.8985 193.381 83.6985 191.189C83.4985 188.598 81.3985 188.996 81.5985 191.787C81.6985 193.381 81.7985 194.976 81.8985 196.57C82.0985 199.161 83.8985 198.762 83.8985 196.57Z" fill="#EFE2DA"/>
<path id="Vector_5" d="M96.1985 191.986C95.5985 187.601 95.5985 186.206 95.0985 185.409C94.5985 184.612 93.7985 184.811 93.3985 185.808C92.8985 187.203 93.1985 188.199 93.8985 192.983C94.5985 195.972 96.4985 194.178 96.1985 191.986Z" fill="#EFE2DA"/>
<path id="Vector_6" d="M106.098 187.203C105.398 187.402 104.898 188.598 104.998 189.993C105.098 191.587 107.398 194.976 107.998 195.773C109.198 197.367 110.598 194.178 109.398 191.986C106.998 187.801 106.998 187.003 106.098 187.203Z" fill="#EFE2DA"/>
<path id="Vector_7" d="M109.098 170.661C109.998 170.86 110.898 170.86 111.898 171.059C112.698 171.259 113.398 169.864 113.198 168.269C112.998 166.077 111.998 166.077 109.398 165.678C107.598 165.479 107.598 170.462 109.098 170.661Z" fill="#EFE2DA"/>
<path id="Vector_8" d="M110.498 149.136C111.398 148.538 111.098 145.15 109.798 145.947C108.198 146.944 106.398 147.342 106.898 149.734C107.398 151.528 108.198 150.73 110.498 149.136Z" fill="#EFE2DA"/>
<path id="Vector_9" d="M122.698 144.751C122.198 145.349 122.098 146.146 122.298 146.943C122.698 148.936 123.698 147.541 125.798 145.548C126.198 145.15 126.498 144.153 126.298 143.157C125.698 140.964 124.498 142.559 122.698 144.751Z" fill="#EFE2DA"/>
<path id="Vector_10" d="M125.798 164.681C126.198 165.877 127.198 166.077 128.098 163.087C129.298 159.5 130.198 157.507 129.198 156.111C128.798 155.514 127.998 155.514 127.698 156.51C127.398 157.307 127.098 158.304 126.798 159.101C125.898 162.29 125.198 163.286 125.798 164.681Z" fill="#EFE2DA"/>
<path id="Vector_11" d="M140.299 175.643C139.899 173.451 139.498 171.259 139.098 169.066C138.898 167.87 138.099 167.272 137.499 167.87C136.199 168.867 136.799 171.657 138.199 177.636C138.799 180.028 140.899 178.633 140.299 175.643Z" fill="#EFE2DA"/>
<path id="Vector_12" d="M143.898 146.147C142.898 145.947 142.298 148.339 142.898 149.535C144.698 153.321 145.198 154.916 145.798 155.115C146.798 155.314 147.298 153.122 146.698 151.727C144.798 147.342 144.498 146.346 143.898 146.147Z" fill="#EFE2DA"/>
<path id="Vector_13" d="M153.199 147.143C153.799 154.716 153.799 157.307 154.999 157.108C156.299 156.709 155.899 154.716 155.299 146.545C155.199 143.755 152.999 144.552 153.199 147.143Z" fill="#EFE2DA"/>
<path id="Vector_14" d="M164.898 140.367C164.498 140.167 162.998 138.573 162.598 137.975C161.798 137.178 160.798 138.972 161.198 140.965C161.498 142.36 163.898 144.353 164.698 144.552C165.798 144.751 166.398 141.164 164.898 140.367Z" fill="#EFE2DA"/>
<path id="Vector_15" d="M163.299 112.863C161.799 115.454 158.898 116.251 159.598 119.44C159.898 120.636 160.598 121.034 161.098 120.636C163.298 118.244 165.899 115.852 164.799 113.261C164.399 112.464 163.699 112.265 163.299 112.863Z" fill="#EFE2DA"/>
<path id="Vector_16" d="M159.898 98.314C159.798 96.5202 158.598 95.9223 158.098 97.3174C157.098 100.108 156.098 102.3 157.098 103.695C157.498 104.293 158.198 104.293 158.598 103.297C159.698 99.9084 159.998 99.5098 159.898 98.314Z" fill="#EFE2DA"/>
<path id="Vector_17" d="M51.3985 156.909C51.6985 157.706 52.1985 157.706 52.5985 157.108C53.6985 155.514 51.9985 153.122 50.8985 151.328C50.4985 150.73 49.9985 150.93 49.6985 151.727C48.9985 153.521 50.1985 154.517 51.0985 156.311C51.1985 156.51 51.2985 156.709 51.3985 156.909Z" fill="#EFE2DA"/>
<path id="Vector_18" d="M46.8985 173.451C47.5985 174.049 48.2985 172.454 47.9985 171.258C46.8985 167.472 46.7985 164.482 45.6985 165.479C44.7985 166.276 45.3985 168.269 45.8985 170.461C45.9985 171.059 46.4985 173.052 46.8985 173.451Z" fill="#EFE2DA"/>
<path id="Vector_19" d="M40.3985 168.468C40.4985 167.273 40.0985 166.276 39.4985 166.077C37.5985 165.678 38.2985 173.052 37.4985 177.038C37.1985 178.234 37.7985 179.829 38.4985 179.629C39.4985 179.43 39.7985 175.444 40.3985 168.468Z" fill="#EFE2DA"/>
<path id="Vector_20" d="M34.2985 155.314C35.1985 152.723 33.2985 150.133 32.3985 152.524C30.0985 158.902 29.1985 160.696 30.1985 162.29C31.3985 163.884 32.1985 161.094 34.2985 155.314Z" fill="#EFE2DA"/>
<path id="Vector_21" d="M26.6985 152.923C27.1985 150.531 27.1985 148.339 27.4985 143.157C27.5985 141.961 27.1985 140.965 26.5985 140.765C24.7985 140.367 25.5985 146.346 24.8985 151.328C24.4985 154.318 26.2985 154.916 26.6985 152.923Z" fill="#EFE2DA"/>
<path id="Vector_22" d="M15.2985 147.741C14.2985 149.534 15.5985 152.125 16.3985 150.531C20.2985 143.755 17.4985 141.762 16.7985 143.755C16.0985 145.748 15.8985 146.744 15.2985 147.741Z" fill="#EFE2DA"/>
<path id="Vector_23" d="M10.4985 126.814C9.69852 126.615 8.99852 128.608 9.59852 130.003C9.99852 130.999 11.5985 131.398 14.4985 132.594C15.0985 132.793 15.7985 131.597 15.6985 130.202C15.5985 128.209 14.9985 128.209 10.4985 126.814Z" fill="#EFE2DA"/>
<path id="Vector_24" d="M17.1985 110.671C16.7985 110.272 15.7985 108.877 15.3985 108.877C14.5985 109.076 14.4985 111.269 14.9985 111.867C15.3985 112.265 15.7985 112.863 16.1985 113.262C17.2985 114.657 18.0985 111.667 17.1985 110.671Z" fill="#EFE2DA"/>
</g>
</svg>
