<svg xmlns="http://www.w3.org/2000/svg" width="21" height="" viewBox="0 111 21 21" fill="none">
  <path d="M10.8469 112.631C16.0031 112.631 20.175 116.803 20.175 121.951C20.175 127.1 16.0031 131.279 10.8469 131.279C5.69061 131.279 1.51874 127.107 1.51874 121.959C1.51874 116.811 5.69061 112.631 10.8469 112.631Z" fill="#E74D89"/>
  <path d="M10.8465 131.943C5.33087 131.943 0.846497 127.467 0.846497 121.959C0.846497 116.443 5.33087 111.967 10.8465 111.967C16.3621 111.967 20.8465 116.443 20.8465 121.951C20.8465 127.459 16.3621 131.943 10.8465 131.943ZM19.2762 123.318C18.9871 123.225 16.6356 122.529 13.9559 122.951C15.0731 126.014 15.5262 128.514 15.6121 129.029C17.534 127.74 18.9012 125.693 19.2762 123.318ZM14.1824 129.818C14.0574 129.068 13.5574 126.459 12.3621 123.35C12.3465 123.357 12.3231 123.365 12.3074 123.365C7.48712 125.045 5.76056 128.381 5.60431 128.693C7.04962 129.818 8.86993 130.49 10.8465 130.49C12.0262 130.498 13.159 130.256 14.1824 129.818ZM4.50275 127.67C4.69806 127.342 7.04181 123.467 11.4481 122.037C11.5574 121.998 11.6746 121.967 11.784 121.936C11.5731 121.451 11.3387 120.967 11.0887 120.49C6.82306 121.764 2.68243 121.709 2.30743 121.701C2.30743 121.787 2.29962 121.873 2.29962 121.959C2.30743 124.154 3.13556 126.154 4.50275 127.67ZM2.48712 120.217C2.86993 120.225 6.38556 120.24 10.3856 119.178C8.9715 116.662 7.44025 114.553 7.2215 114.248C4.82306 115.373 3.04181 117.576 2.48712 120.217ZM8.8465 113.67C9.08087 113.982 10.6356 116.092 12.034 118.662C15.0731 117.521 16.3543 115.803 16.5106 115.584C15.0027 114.248 13.0184 113.436 10.8465 113.436C10.159 113.436 9.48712 113.521 8.8465 113.67ZM17.4559 116.568C17.2762 116.811 15.8465 118.646 12.6902 119.936C12.8856 120.342 13.0809 120.756 13.2606 121.17C13.3231 121.318 13.3856 121.467 13.4481 121.607C16.2918 121.248 19.1121 121.826 19.3934 121.881C19.3699 119.873 18.6512 118.021 17.4559 116.568Z" fill="#B2215A"/>
</svg>